<svg width="0" height="0" class="hidden">
  
  <symbol fill="#FF5722" xmlns="http://www.w3.org/2000/svg" viewBox="0 0 50 50" id="linkedin">
    <path d="M41,4H9C6.24,4,4,6.24,4,9v32c0,2.76,2.24,5,5,5h32c2.76,0,5-2.24,5-5V9C46,6.24,43.76,4,41,4z M17,20v19h-6V20H17z M11,14.47c0-1.4,1.2-2.47,3-2.47s2.93,1.07,3,2.47c0,1.4-1.12,2.53-3,2.53C12.2,17,11,15.87,11,14.47z M39,39h-6c0,0,0-9.26,0-10 c0-2-1-4-3.5-4.04h-0.08C27,24.96,26,27.02,26,29c0,0.91,0,10,0,10h-6V20h6v2.56c0,0,1.93-2.56,5.81-2.56 c3.97,0,7.19,2.73,7.19,8.26V39z"></path>
  </symbol>
  <symbol fill="#FF5722" xmlns="http://www.w3.org/2000/svg" viewBox="0 0 50 50" id="facebook">
    <path d="M41,4H9C6.24,4,4,6.24,4,9v32c0,2.76,2.24,5,5,5h32c2.76,0,5-2.24,5-5V9C46,6.24,43.76,4,41,4z M37,19h-2c-2.14,0-3,0.5-3,2 v3h5l-1,5h-4v15h-5V29h-4v-5h4v-3c0-4,2-7,6-7c2.9,0,4,1,4,1V19z"></path>
  </symbol>
  <symbol fill="#FF5722" xmlns="http://www.w3.org/2000/svg" viewBox="0 0 50 50" id="twitter">
    <path d="M 50.0625 10.4375 C 48.214844 11.257813 46.234375 11.808594 44.152344 12.058594 C 46.277344 10.785156 47.910156 8.769531 48.675781 6.371094 C 46.691406 7.546875 44.484375 8.402344 42.144531 8.863281 C 40.269531 6.863281 37.597656 5.617188 34.640625 5.617188 C 28.960938 5.617188 24.355469 10.21875 24.355469 15.898438 C 24.355469 16.703125 24.449219 17.488281 24.625 18.242188 C 16.078125 17.8125 8.503906 13.71875 3.429688 7.496094 C 2.542969 9.019531 2.039063 10.785156 2.039063 12.667969 C 2.039063 16.234375 3.851563 19.382813 6.613281 21.230469 C 4.925781 21.175781 3.339844 20.710938 1.953125 19.941406 C 1.953125 19.984375 1.953125 20.027344 1.953125 20.070313 C 1.953125 25.054688 5.5 29.207031 10.199219 30.15625 C 9.339844 30.390625 8.429688 30.515625 7.492188 30.515625 C 6.828125 30.515625 6.183594 30.453125 5.554688 30.328125 C 6.867188 34.410156 10.664063 37.390625 15.160156 37.472656 C 11.644531 40.230469 7.210938 41.871094 2.390625 41.871094 C 1.558594 41.871094 0.742188 41.824219 -0.0585938 41.726563 C 4.488281 44.648438 9.894531 46.347656 15.703125 46.347656 C 34.617188 46.347656 44.960938 30.679688 44.960938 17.09375 C 44.960938 16.648438 44.949219 16.199219 44.933594 15.761719 C 46.941406 14.3125 48.683594 12.5 50.0625 10.4375 Z"></path>
  </symbol>
  <symbol fill="#FF5722" xmlns="http://www.w3.org/2000/svg" xmlns:xlink="http://www.w3.org/1999/xlink" version="1.1" xml:space="preserve" viewBox="0 0 256 256" id="location">
    <defs></defs>
    <g transform="translate(1.4065934065934016 1.4065934065934016) scale(2.81 2.81)">
      <path
      d="M 45.229 90.18 l -26.97 -31.765 c -5.419 -6.387 -8.404 -14.506 -8.404 -22.861 c 0 -19.506 15.869 -35.374 35.374 -35.374 s 35.375 15.869 35.375 35.374 c 0 8.355 -2.985 16.474 -8.405 22.861 L 45.229 90.18 z M 45.229 3.121 c -17.884 0 -32.433 14.549 -32.433 32.433 c 0 7.659 2.737 15.102 7.705 20.958 l 24.728 29.125 l 24.728 -29.125 c 4.969 -5.855 7.706 -13.299 7.706 -20.958 C 77.662 17.67 63.113 3.121 45.229 3.121 z M 45.229 49.801 c -8.499 0 -15.413 -6.915 -15.413 -15.414 s 6.915 -15.414 15.413 -15.414 c 8.499 0 15.413 6.915 15.413 15.414 S 53.728 49.801 45.229 49.801 z M 45.229 21.914 c -6.878 0 -12.473 5.596 -12.473 12.473 s 5.595 12.473 12.473 12.473 s 12.473 -5.596 12.473 -12.473 S 52.106 21.914 45.229 21.914 z" transform=" matrix(1 0 0 1 0 0) " stroke-width="10" stroke-linecap="round"></path>
    </g>
  </symbol>
  <symbol fill="#FF5722" xmlns="http://www.w3.org/2000/svg" xmlns:xlink="http://www.w3.org/1999/xlink" version="1.1" xml:space="preserve" viewBox="0 0 256 256" id="mail">
    <defs></defs>
    <g transform="translate(1.4065934065934016 1.4065934065934016) scale(2.81 2.81)">
      <path 
      d="M 0 11.755 v 66.489 h 90 V 11.755 H 0 z M 45 50.49 L 7.138 15.755 h 75.724 L 45 50.49 z M 33.099 45 L 4 71.695 V 18.304 L 33.099 45 z M 36.058 47.714 L 45 55.918 l 8.943 -8.204 l 28.919 26.53 H 7.138 L 36.058 47.714 z M 56.901 45 L 86 18.304 v 53.392 L 56.901 45 z" transform=" matrix(1 0 0 1 0 0) " stroke-linecap="round"></path>
    </g>
  </symbol>
  <symbol fill="#FF5722" xmlns="http://www.w3.org/2000/svg" viewBox="0 0 24 38" id="phone">
    <path d="M18.668 0.667969H5.33197C2.56597 0.667969 0.33197 2.89797 0.33197 5.66797V32.332C0.33197 35.102 2.56597 37.332 5.33197 37.332H18.668C21.434 37.332 23.668 35.102 23.668 32.332V5.66797C23.668 2.89797 21.434 0.667969 18.668 0.667969ZM14.5 34H9.49997C9.39045 34.0009 9.28184 33.98 9.18048 33.9385C9.07911 33.8971 8.98702 33.8358 8.90958 33.7584C8.83213 33.6809 8.77088 33.5888 8.7294 33.4875C8.68792 33.3861 8.66704 33.2775 8.66797 33.168C8.66797 32.699 9.03497 32.332 9.49997 32.332H14.5C14.965 32.332 15.332 32.699 15.332 33.168C15.3329 33.2775 15.312 33.3861 15.2705 33.4875C15.2291 33.5888 15.1678 33.6809 15.0904 33.7584C15.0129 33.8358 14.9208 33.8971 14.8195 33.9385C14.7181 33.98 14.6095 34.0009 14.5 34ZM20.332 29H3.66797V5.66797H20.332V29Z" fill="#FF5722"></path>
  </symbol>
</svg>


